<svg xmlns="http://www.w3.org/2000/svg" xmlns:xlink="http://www.w3.org/1999/xlink" width="170" height="50" viewBox="-1 0 170 50"><path d="M42.225 43.963h-1.317v-10.08h1.317v10.08zm7.583-.65c-.797.53-1.52.784-2.647.784-2.06 0-3.22-1.7-3.22-3.533 0-2.012 1.27-3.37 3.11-3.37 1.76 0 2.89 1.196 2.89 3.65h-4.67c.21 1.313.96 1.995 2.23 1.995.8 0 1.55-.3 2.32-.8v1.27zm-1.182-3.34c-.046-1.006-.62-1.643-1.554-1.643-1.005 0-1.61.59-1.788 1.643h3.342zm4.55-2.647h2.1v1.184h-2.1v3.398c0 .78.563 1.004.946 1.004.475 0 .962-.162 1.493-.486v1.227c-.458.254-1.167.445-1.596.445-1.44 0-2.16-.89-2.16-2.084V38.51h-1.15v-.148l2.46-2.408v1.372zm3.474-.222c.605-.518.62-.99.59-1.58-.47-.06-.78-.4-.78-.873 0-.59.382-.9.886-.9.606 0 .99.62.99 1.38 0 1.1-.59 1.94-1.686 2.27v-.28zm5.9 1.935c-.74-.49-1.436-.7-1.926-.7-.53 0-.87.25-.87.6 0 .29.442.65 1.61 1.33 1.094.72 1.492 1.18 1.492 1.86 0 1.16-.93 1.95-2.187 1.95-.82 0-1.45-.17-2.31-.61v-1.42c.85.59 1.64.87 2.17.87.53-.03.97-.28.97-.76 0-.92-3.11-1.41-3.11-3.2 0-1.12.86-1.81 2.19-1.81.62 0 1.25.18 1.95.55V39zm9.207 0c-.74-.49-1.435-.7-1.922-.7-.533 0-.873.25-.873.6 0 .29.442.65 1.61 1.33 1.095.72 1.492 1.18 1.492 1.86 0 1.16-.93 1.95-2.188 1.95-.812 0-1.447-.17-2.307-.61v-1.42c.85.59 1.64.87 2.17.87.53-.03.97-.28.97-.76 0-.92-3.11-1.41-3.11-3.2 0-1.12.85-1.81 2.19-1.81.62 0 1.25.18 1.95.55V39zm3.665-1.72h2.098v1.18h-2.098v3.4c0 .78.56 1 .943 1 .474 0 .963-.16 1.492-.49v1.22c-.457.25-1.166.44-1.596.44-1.43 0-2.15-.89-2.15-2.09v-3.5h-1.16v-.15l2.48-2.41v1.37zm8.822 6.25c-.604.4-.857.52-1.27.52-.578 0-.89-.21-1.01-.69-.575.46-1.182.68-1.786.68-.976 0-1.628-.77-1.628-1.63 0-1.32 1.198-1.72 2.264-2.11l1.166-.42v-.35c0-.83-.397-1.17-1.195-1.17-.727 0-1.465.34-2.1 1.09v-1.43c.52-.6 1.24-.9 2.202-.9 1.345 0 2.41.68 2.41 2.19v3.416c0 .25.087.34.25.34.136 0 .4-.135.692-.354v.79zm-2.262-2.9c-1.12.38-2.1.77-2.1 1.55 0 .54.4.93.948.93.414 0 .797-.21 1.15-.55v-1.93h.002zm3.68 6.68h-1.465l2.265-4.82-2.572-5.22h1.494l1.787 3.74 1.72-3.74h1.48l-4.7 10.04zM96.35 37.32h2.1v1.184h-2.1v3.4c0 .78.562 1.003.944 1.003.476 0 .963-.16 1.494-.486v1.23c-.46.26-1.167.45-1.597.45-1.43 0-2.15-.89-2.15-2.08v-3.5h-1.16v-.14l2.47-2.4v1.37zm10.377 3.25c0 2.1-1.464 3.52-3.594 3.52-2.04 0-3.503-1.48-3.503-3.52 0-1.903 1.522-3.384 3.503-3.384 2.087 0 3.594 1.42 3.594 3.385zm-5.75 0c0 1.405.87 2.337 2.144 2.337 1.4 0 2.27-.89 2.27-2.32 0-1.285-.94-2.217-2.26-2.217-1.24 0-2.14.93-2.14 2.2zm12.798-2.23h-1.36c.517.52.696.887.696 1.447 0 .55-.31 1.186-.62 1.494-.88.95-2.69.48-2.69 1.26 0 .37.7.6 2.03.86 1.42.28 1.93 1.01 1.93 1.85 0 1.32-1.16 2.11-3.13 2.11-1.79 0-3.06-.84-3.06-2.01 0-.97.52-1.55 1.67-1.83-.46-.28-.66-.55-.66-.84 0-.43.42-.8 1.06-.94v-.03c-.49-.2-.853-.48-1.11-.84-.232-.34-.35-.75-.35-1.24 0-1.42 1.11-2.29 2.9-2.29h2.732v1.02zm-3.473 5.94c-.887 0-1.506.415-1.506 1.007 0 .664.647 1.02 1.847 1.02 1.152 0 1.832-.354 1.832-.96 0-.843-1.362-1.066-2.173-1.066zm.34-5.82c-.725 0-1.315.546-1.315 1.194 0 .73.53 1.215 1.33 1.215.74 0 1.27-.52 1.27-1.24 0-.64-.59-1.17-1.284-1.17zm9.99 4.846c-.797.53-1.52.785-2.646.785-2.067 0-3.225-1.7-3.225-3.53 0-2.01 1.28-3.37 3.11-3.37 1.76 0 2.89 1.2 2.89 3.65h-4.67c.21 1.31.96 2 2.23 2 .8 0 1.55-.3 2.32-.8l.01 1.27zm-1.183-3.34c-.05-1.005-.62-1.64-1.56-1.64-1.01 0-1.61.59-1.79 1.644h3.34zM124 37.32h2.1v1.185H124v3.4c0 .78.562 1.003.944 1.003.475 0 .96-.16 1.494-.486v1.225c-.456.253-1.167.444-1.597.444-1.43 0-2.15-.89-2.15-2.08v-3.5h-1.15v-.15l2.46-2.41v1.38zm4.96.87h.026c.504-.633 1.24-1.002 1.98-1.002 1.302 0 2.263.887 2.263 2.705v4.06h-1.32V39.85c0-.98-.51-1.61-1.31-1.61-.58 0-1.04.268-1.66.96v4.76h-1.32V33.88h1.31v4.314zm11.2 5.117c-.795.53-1.52.787-2.646.787-2.067 0-3.223-1.7-3.223-3.533 0-2.01 1.27-3.37 3.11-3.37 1.76 0 2.89 1.2 2.89 3.65h-4.67c.21 1.32.96 2 2.23 2 .8 0 1.55-.3 2.32-.8l.01 1.27zm-1.18-3.34c-.046-1.003-.62-1.64-1.554-1.64-1.004 0-1.61.59-1.79 1.646h3.343zm4.417-2.644v1.523h.03c.665-1.17 1.3-1.66 1.92-1.66.534 0 1.034.252 1.583.77l-.69 1.143c-.402-.39-.92-.65-1.23-.65-.9 0-1.61.9-1.61 2.04v3.47h-1.314v-6.64h1.313z" fill="#2A6EBB"/><path fill="#221E1F" d="M43.022 9.706v7.805h9.02v-7.8h2.437v18.65h-2.44v-8.74h-9.02v8.75h-2.41V9.7h2.4zm27.022 11.846c0 4.952-3.433 7.11-6.67 7.11-3.624 0-6.42-2.654-6.42-6.89 0-4.483 2.934-7.112 6.643-7.112 3.846.002 6.447 2.795 6.447 6.892zm-10.625.137c0 2.93 1.68 5.14 4.06 5.14 2.32 0 4.07-2.19 4.07-5.2 0-2.27-1.14-5.15-4.01-5.15s-4.12 2.65-4.12 5.2zm13.04-3.1c0-1.39-.03-2.52-.11-3.63h2.13l.11 2.15h.08c.75-1.27 1.99-2.46 4.21-2.46 1.82 0 3.21 1.1 3.79 2.68h.05c.41-.75.94-1.33 1.49-1.75.8-.61 1.68-.94 2.96-.94 1.77 0 4.39 1.16 4.39 5.81v7.88H89.2v-7.58c0-2.58-.94-4.13-2.905-4.13-1.384 0-2.46 1.02-2.878 2.21-.11.33-.194.772-.194 1.22v8.27h-2.38V20.3c0-2.135-.937-3.68-2.796-3.68-1.52 0-2.625 1.214-3.012 2.43-.137.36-.193.77-.193 1.19v8.075h-2.38v-9.76zm23.85 3.39c.05 3.36 2.2 4.74 4.68 4.74 1.77 0 2.85-.31 3.78-.71l.42 1.78c-.88.39-2.37.87-4.55.87-4.2 0-6.72-2.8-6.72-6.92s2.43-7.37 6.4-7.37c4.46 0 5.65 3.92 5.65 6.43 0 .51-.06.9-.09 1.16H96.3zm7.28-1.78c.03-1.59-.65-4.04-3.44-4.04-2.52 0-3.62 2.31-3.82 4.04h7.25z"/><path fill="#2A6EBB" d="M111.583 22.374l-1.978 5.983h-2.54l6.464-19.023h2.96l6.49 19.023h-2.63l-2.04-5.983h-6.75zm6.235-1.92l-1.86-5.474c-.425-1.242-.705-2.37-.988-3.474h-.058c-.28 1.13-.594 2.288-.958 3.444l-1.865 5.504h5.72zm7.618-5.757l1.807 6.943c.396 1.524.763 2.937 1.017 4.348h.086c.312-1.382.763-2.85 1.216-4.348l2.23-6.943h2.09l2.116 6.832c.508 1.63.902 3.07 1.213 4.45h.09c.23-1.38.6-2.82 1.05-4.43l1.95-6.86h2.46l-4.4 13.66h-2.26l-2.1-6.52c-.48-1.53-.87-2.88-1.21-4.49h-.06c-.34 1.64-.76 3.05-1.24 4.52l-2.2 6.49h-2.26L122.9 14.7h2.538zm28.616 10.387c0 1.187.056 2.343.226 3.273h-2.258l-.197-1.723h-.084c-.77 1.072-2.23 2.03-4.18 2.03-2.77 0-4.18-1.944-4.18-3.922 0-3.305 2.94-5.106 8.21-5.08v-.282c0-1.13-.31-3.163-3.11-3.163-1.27 0-2.6.396-3.56 1.017l-.57-1.64c1.13-.73 2.77-1.21 4.49-1.21 4.18 0 5.19 2.85 5.19 5.586v5.114zm-2.402-3.698c-2.707-.057-5.783.424-5.783 3.078 0 1.608 1.07 2.37 2.343 2.37 1.778 0 2.903-1.13 3.3-2.285.087-.26.145-.54.145-.79v-2.38h-.005zm6.43-6.69l2.992 8.075c.312.91.647 1.98.873 2.8h.058c.254-.82.537-1.86.877-2.85l2.71-8.02h2.624l-3.726 9.74c-1.562 4.11-2.808 6.55-4.688 8.18-1.214 1.08-2.428 1.5-3.05 1.61l-.62-2.09c.62-.2 1.437-.59 2.173-1.21.68-.53 1.525-1.49 2.09-2.77.11-.25.196-.45.196-.59s-.06-.33-.18-.64l-5.05-12.22h2.71v.01zm-5.574 24.22c0 1.004-.81 1.803-1.834 1.803s-1.844-.8-1.844-1.81.818-1.79 1.855-1.79c1.014 0 1.823.78 1.823 1.79zm-3.22 0c0 .797.6 1.428 1.397 1.428.773.012 1.36-.63 1.36-1.416 0-.8-.587-1.44-1.388-1.44-.768-.002-1.368.64-1.368 1.428zm1.1.928h-.413v-1.79c.166-.022.395-.054.688-.054.34 0 .5.055.62.14.11.077.19.21.19.382 0 .22-.16.363-.37.428v.02c.17.056.27.196.32.44.06.27.1.366.13.437h-.44c-.05-.068-.08-.22-.14-.438-.03-.19-.14-.28-.37-.28h-.19v.7zm.014-1.004h.197c.227 0 .414-.076.414-.262 0-.166-.12-.273-.38-.273l-.22.02v.515z"/><defs><path id="a" d="M0 .468h34.798v31.064H0z"/></defs><clipPath id="b"><use xlink:href="#a" overflow="visible"/></clipPath><path clip-path="url(#b)" fill="#fff" d="M11.508 2.728l-6.91 8.157v12.038l6.537-.968s1.242-.2 1.328.968c.093 1.313-1.076 1.306-1.076 1.306L4.6 25.34v2.484l14.528 2.625v-19.2l-7.62-8.53zM14.93 19.17c-.724.948-1.77 1.593-2.97 1.65l-.193.008c-1.205 0-2.304-.595-3.1-1.52-.795-.934-1.32-2.204-1.39-3.624l-.01-.352c0-1.385.432-2.647 1.157-3.602.724-.947 1.77-1.593 2.97-1.65l.194-.007c1.206 0 2.303.595 3.1 1.52.796.933 1.312 2.203 1.39 3.624l.008.35c.007 1.388-.423 2.65-1.155 3.604"/><defs><path id="c" d="M0 .468h34.798v31.064H0z"/></defs><clipPath id="d"><use xlink:href="#c" overflow="visible"/></clipPath><path clip-path="url(#d)" fill="#fff" d="M22.034 19.638L22.02 24.3l3.465-.61-.02-4.52z"/><defs><path id="e" d="M0 .468h34.798v31.064H0z"/></defs><clipPath id="f"><use xlink:href="#e" overflow="visible"/></clipPath><path clip-path="url(#f)" fill="#fff" d="M14.02 12.176c-.668-.774-1.52-1.22-2.433-1.22l-.144.007c-.904.05-1.714.523-2.317 1.306-.603.78-.977 1.86-.977 3.06v.3c.06 1.23.51 2.32 1.17 3.09.66.77 1.52 1.21 2.43 1.21h.14c.9-.05 1.71-.53 2.31-1.31.6-.78.97-1.87.97-3.07l-.01-.31c-.06-1.23-.51-2.32-1.178-3.09m-4.82 3.46c-.096-1.82.866-3.36 2.164-3.45-.76.51-1.263 1.834-1.176 3.376.08 1.557.73 2.842 1.55 3.25v.022c-1.32.063-2.45-1.37-2.55-3.21"/><defs><path id="g" d="M0 .468h34.798v31.064H0z"/></defs><clipPath id="h"><use xlink:href="#g" overflow="visible"/></clipPath><path clip-path="url(#h)" fill="#fff" d="M26.87 13.066v4.484l2.84-.38-.006-4.384z"/><defs><path id="i" d="M0 .468h34.798v31.064H0z"/></defs><clipPath id="j"><use xlink:href="#i" overflow="visible"/></clipPath><path clip-path="url(#j)" fill="#fff" d="M26.87 23.44l2.834-.495v-4.383l-2.834.41z"/><defs><path id="k" d="M0 .468h34.798v31.064H0z"/></defs><clipPath id="l"><use xlink:href="#k" overflow="visible"/></clipPath><path clip-path="url(#l)" fill="#116DB3" d="M25.234.468H9.478L.172 11.444l3.28-.23v11.882l-2.506.366s-1.205.222-.903 1.506c.265.934 1.212.934 1.212.934l2.188-.36V28.7l15.677 2.833 12.32-2.813-.015-17.253 3.373-.31L25.234.467zM22.05 13.532l3.414-.323v4.52l-3.445.45.03-4.65zM4.6 27.84v-2.485l6.787-1.12s1.17.01 1.076-1.304c-.086-1.17-1.328-.96-1.328-.96l-6.535.97V10.9l6.907-8.157 7.62 8.523v19.21l-14.53-2.63zm17.42-3.54l.014-4.662 3.43-.46.02 4.52-3.465.603zm7.684-1.362l-2.842.495v-4.47l2.842-.408v4.383zM26.87 17.55v-4.484l2.84-.272.008 4.376-2.848.38z"/><defs><path id="m" d="M0 .468h34.798v31.064H0z"/></defs><clipPath id="n"><use xlink:href="#m" overflow="visible"/></clipPath><path clip-path="url(#n)" fill="#116DB3" d="M14.694 11.595c-.796-.932-1.895-1.52-3.1-1.52l-.193.007c-1.19.065-2.24.703-2.97 1.65-.73.955-1.15 2.217-1.15 3.602l.01.352c.07 1.42.6 2.69 1.39 3.623.8.92 1.9 1.52 3.1 1.52l.2-.01c1.2-.06 2.25-.71 2.97-1.65.73-.96 1.17-2.22 1.17-3.6v-.35c-.08-1.42-.6-2.7-1.4-3.63m-.46 7.04c-.6.78-1.41 1.26-2.31 1.3h-.15c-.91 0-1.76-.45-2.43-1.22-.66-.77-1.12-1.86-1.17-3.09l-.01-.3c0-1.2.373-2.28.975-3.07s1.41-1.27 2.315-1.31h.15c.91 0 1.76.44 2.43 1.22.67.76 1.12 1.86 1.172 3.09l.01.3c0 1.19-.38 2.27-.97 3.05"/><defs><path id="o" d="M0 .468h34.798v31.064H0z"/></defs><clipPath id="p"><use xlink:href="#o" overflow="visible"/></clipPath><path clip-path="url(#p)" fill="#116DB3" d="M10.16 15.54c-.08-1.54.417-2.876 1.176-3.378-1.292.094-2.26 1.622-2.167 3.45.1 1.838 1.23 3.273 2.54 3.21V18.8c-.82-.42-1.48-1.703-1.55-3.26"/><defs><path id="q" d="M0 .468h34.798v31.064H0z"/></defs><clipPath id="r"><use xlink:href="#q" overflow="visible"/></clipPath><path clip-path="url(#r)" fill="#fff" d="M22.05 13.532l3.414-.316v4.513l-3.437.45z"/></svg>