<svg xmlns="http://www.w3.org/2000/svg" viewBox="0 0 244.9 64.1"><text transform="matrix(.9994 0 -.035 .9994 123.23 59.89)" fill="#0769AD" font-family="'Klavika-BoldItalic'" font-size="16.688">foundation</text><path fill="#0769AD" d="M2.9 12.4c-4 5.7-3.5 13.1-.4 19.2.1.1.1.3.2.4 0 .1.1.2.1.3 0 .1.1.1.1.2s.1.2.2.3c.1.2.2.3.3.5.1.1.1.2.2.3.1.2.2.4.3.5 0 .1.1.1.1.2.2.2.3.5.5.7l.1.1c.1.2.3.4.4.6l.2.2c.1.2.3.3.4.5l.2.2c.2.2.4.4.6.7l.6.6c0 .1 0 .1.1.2.1.2.3.3.5.5l.2.2.6.6.1.1c.2.2.4.3.6.5.1 0 .1 0 .2.1.2.1.3.3.5.4.1.1.2.1.3.2.2.1.4.3.5.4.1 0 .1.1.2.1h.1c.2.1.3.2.5.3.1.1.2.1.2.1.3.2.5.3.8.5.1 0 .2.1.2.1l.6.3c.1.1.2.1.3.2.1.1.3.2.4.2h.1c.1 0 .1.1.2.1.2.1.5.2.7.3 0 0 .1 0 .1.1.3.1.5.2.8.3.1 0 .1.1.2.1.3.1.5.2.8.3h.1l.9.3c.1 0 .1 0 .2.1l.9.3c19.2 3.5 24.8-11.6 24.8-11.6-4.7 6.1-13 7.7-20.9 5.9-.3-.1-.6-.2-.9-.2-.1 0-.1 0-.2-.1-.3-.1-.6-.2-.8-.3h-.1c-.3-.1-.5-.2-.7-.3-.1 0-.1-.1-.2-.1-.3-.1-.5-.2-.8-.3-.1 0-.1 0-.2-.1-.2-.1-.5-.2-.7-.3-.1 0-.1-.1-.2-.1-.2-.1-.4-.2-.5-.3-.1-.1-.2-.1-.4-.2s-.4-.2-.6-.4c-.1 0-.1-.1-.2-.1-.3-.2-.6-.3-.8-.5-.1 0-.1-.1-.2-.1-.2-.1-.4-.3-.6-.4-.1 0-.1-.1-.2-.1-.2-.1-.4-.3-.6-.4-.1-.1-.2-.1-.2-.2-.2-.1-.3-.3-.5-.4L13 34c-.2-.2-.4-.3-.6-.5l-.1-.1c-.2-.2-.4-.4-.7-.6l-.2-.2-.5-.5-.2-.2-.6-.6c-.1.1-.3-.1-.5-.3l-.2-.2c-.1-.2-.3-.3-.4-.5 0-.1-.1-.1-.1-.2-.2-.2-.3-.4-.5-.6-4.4-6-6-14.2-2.5-21"/><path fill="#0769AD" d="M15.2 7.6c-2.9 4.1-2.7 9.7-.5 14 .4.7.8 1.4 1.3 2.1.4.6.9 1.4 1.5 1.8.2.2.4.4.6.7l.2.2c.2.2.4.4.7.6.3.2.5.4.8.6.1 0 .1.1.2.1.3.2.5.4.8.6.1.1.2.2.4.2.1 0 .1.1.2.1.2.1.4.2.6.4h.1c.2.1.3.2.5.3.1 0 .1.1.2.1.1.1.2.1.4.2h.1c.3.1.5.2.8.4.1 0 .1 0 .2.1l.6.3c.1 0 .2.1.3.1.2.1.4.1.6.2.1 0 .2.1.3.1.3.1.6.2.8.2 14.8 2.5 18.3-9 18.3-9-3.1 4.5-9.1 6.6-15.5 4.9-.3-.1-.6-.2-.8-.2-.1 0-.2-.1-.3-.1-.2-.1-.4-.1-.6-.2-.1 0-.2-.1-.3-.1l-.6-.3c-.1 0-.1 0-.2-.1-.3-.1-.5-.2-.8-.4-.1-.1-.3-.1-.4-.2-.1 0-.2-.1-.2-.1-.2-.1-.3-.2-.5-.3 0 0-.1 0-.1-.1-.2-.1-.4-.2-.6-.4-.1 0-.1-.1-.2-.1-.1-.1-.3-.2-.4-.3-.3-.2-.5-.4-.8-.6-.1-.1-.1-.1-.2-.1-2.8-2.2-5-5.2-6.1-8.6-1.1-3.5-.9-7.5 1-10.8"/><path fill="#0769AD" d="M25.6 4c-1.7 2.5-1.9 5.6-.7 8.3 1.2 2.9 3.8 5.2 6.7 6.3.1 0 .2.1.4.1.1 0 .1 0 .2.1.2.1.3.1.5.2 8.2 1.6 10.4-4.2 11-5.1-2 2.8-5.2 3.5-9.2 2.5-.3-.1-.7-.2-1-.3-.4-.1-.8-.3-1.2-.5-.7-.3-1.4-.8-2-1.2-3.6-2.7-5.8-7.9-3.5-12.2"/><g fill="#333"><path d="M217.2 15.2l.3 1.4c.1.4-.2.7-.6.7M191 12.8c-.1.4-.2.9-.2 1.2l-2.9 13.4 3-14.1.1-.5zm-86 9l-1.5 5.6 1.5-5.6"/><path d="M217.5 16.6l-.8-3.5c-.7-2.5-2.5-3.7-6.7-3.7h-17.5c-.4 0-.8.2-.9.6L185 41.3c-.1.4-.1.7-.1.9 0 .2.8.2 1.2.2h6.1c.4 0 1.1 0 1.4-.1.2-.1.3-.7.4-1.1l2.1-11 2.6-12.2c.1-.4.5-.7.9-.7h17.3c.4 0 .7-.4.6-.7"/><path d="M242.1 3.8h-7.7c-.4 0-.9.4-1.1.8l-13.5 19.8c-.2.3-.5.3-.6-.1l-1-4.3c-.1-.4-.5-.7-.9-.7h-8.7c-.4 0-.6.3-.5.7l3.9 13.6c.1.4.1 1 0 1.4l-1.8 6.9c-.1.4.2.5.6.5h8.5c.4 0 .8-.1.9-.5l1.8-7c.1-.4.4-.9.6-1.2l22-29.2c.2-.3.2-.7-.2-.7h-2.3zM152 9.4h-7.8c-.4 0-.8.1-.9.5L140.7 22l-2.6 11.6c-.1.4-.5.4-.9.4h-5.1c-5.1 0-4.5-3.2-3.5-8l3.3-16c.1-.4-.2-.5-.6-.5h-7.4c-.4 0-.8.1-.9.5l-3 16c-1.5 8.6-1.5 16.3 8.5 16.5h15.8c.4 0 .8-.1.9-.5l3.4-16L152 9.7s.1-.3 0-.3zm-77.9-.1h-8.4c-.4 0-.8.1-.9.5l-1.5 6.5c-.1.4.2.7.6.7h8c.4 0 .8-.4.9-.8l1.5-6.6c0 .1.1-.3-.2-.3zm-10.7 10c-.4 0-.8.3-.9.7l-1.1 5-2.5 11.5s-1.3 6.1-1.5 6.5c0 0-1.1 4.4-3.8 4.2-1.3-.1-2.7-.4-2.7-.4-.8-.2-.8.6-.9.9L48.3 55c-.1.4.2.7.6.8 0 0 3.6.5 6.2.5h.4c6.3 0 9.6-3.7 11.7-13.7L69.7 31 72 20.1c.1-.4-.2-.8-.6-.8m100.3-10c-14.1 0-17.5 8.7-19.3 17.3-1.9 8.8-1.7 15.8 12.9 15.8h13.3c.4 0 .8-.4.9-.8l1.4-5.6c.1-.4-.2-.5-.6-.5h-13.1c-4.8 0-6.5-1.5-6.3-4.8 0-.4.4-1.3.8-1.3H182c.9 0 .9-.5.9-.5 2-9.2 2.2-19.6-11.2-19.6m3.8 13.8c0 .4-1.4.4-1.4.4l-11-.1c-.4 0-.5-.5-.5-.9 0 0 0-.5.1-.6.9-2.9 3.4-4.6 7.4-4.6 4.5 0 5.5 2.2 5.5 4.7m-64.8 11.3s3.9-9.6 4.8-15.1C116.9 10.8 113.2 0 98.8 0 84.6 0 78.4 10.3 76 21.4c-2.4 11.2.7 21 14.9 21h21.6c.4 0 .8-.3.9-.7l1.8-6.9c.1-.4-.1-.7-.6-.7h-3.4c-.3 0-.5-.2-.5-.5.1-.2.1-.2.1-.3m-7.4-5.9l-1.6 5.6c-.1.4-.6.6-1 .6h-8.4c-6.4 0-7.9-4.9-6.4-12.2 1.6-7.5 4.6-12.1 10.9-12.6 8.6-.6 10.3 5.4 8.2 12.3l-1.7 6.3z"/></g></svg>