<svg xmlns="http://www.w3.org/2000/svg" viewBox="0 0 248 73.3"><path fill="#F26322" d="M24.4 54.4c0-.7-.5-1-.8-1.1-.7-.4-1.9-1.1-1.9-1.1-.3-.2-.6-.4-1.2 0-.1.1-1.5.9-2 1.1-.5.3-.8.7-.8 1.4v2.2c0 .7.5 1 .8 1.1.7.4 1.9 1.1 1.9 1.1.3.2.6.4 1.2 0 .1-.1 1.5-.9 2-1.1.5-.3.8-.5.8-1.1v-2.5zm0-9.3c0-.7-.5-1-.8-1.1-.7-.4-1.9-1.1-1.9-1.1-.3-.2-.6-.4-1.2 0-.1.1-1.5.9-2 1.1-.5.3-.8.7-.8 1.4v2.2c0 .7.5 1 .8 1.1.7.4 1.9 1.1 1.9 1.1.3.2.6.4 1.2 0 .1-.1 1.5-.9 2-1.1.5-.3.8-.5.8-1.1v-2.5zm13.3 0c0-.7-.5-1-.8-1.1-.7-.4-1.9-1.1-1.9-1.1-.3-.2-.6-.4-1.2 0-.1.1-1.5.9-2 1.1-.5.3-.8.7-.8 1.4v2.2c0 .7.5 1 .8 1.1.7.4 1.9 1.1 1.9 1.1.3.2.6.4 1.2 0 .1-.1 1.5-.9 2-1.1.5-.3.8-.5.8-1.1v-2.5zm0-9.2c0-.7-.5-1-.8-1.1-.7-.4-1.9-1.1-1.9-1.1-.3-.2-.6-.4-1.2 0-.1.1-1.5.9-2 1.1-.5.3-.8.7-.8 1.4v2.2c0 .7.5 1 .8 1.1.7.4 1.9 1.1 1.9 1.1.3.2.6.4 1.2 0 .1-.1 1.5-.9 2-1.1.5-.3.8-.5.8-1.1v-2.5zm0-24.4c0-.7-.5-1-.8-1.1-.6-.4-1.8-1.1-1.9-1.2-.3-.2-.6-.4-1.2 0-.1.1-1.5.9-2 1.1-.5.3-.8.7-.8 1.4V14c0 .7.5 1 .8 1.1.7.4 1.9 1.1 1.9 1.1.3.2.6.4 1.2 0 .1-.1 1.5-.9 2-1.1.5-.3.8-.5.8-1.1v-2.5zm0 9.2c0-.7-.5-1-.8-1.1-.7-.4-1.9-1.1-1.9-1.1-.3-.2-.6-.4-1.2 0-.1.1-1.5.9-2 1.1-.5.3-.8.7-.8 1.4v7.6c0 .7.5 1 .8 1.1.7.4 1.9 1.1 1.9 1.1.3.2.6.4 1.2 0 .1-.1 1.5-.9 2-1.1.5-.3.8-.5.8-1.1v-7.9zM24.4 35.9c0-.7-.5-1-.8-1.1-.7-.4-1.9-1.1-1.9-1.1-.3-.2-.6-.4-1.2 0-.1.1-1.5.9-2 1.1-.5.3-.8.7-.8 1.4v2.2c0 .7.5 1 .8 1.1.7.4 1.9 1.1 1.9 1.1.3.2.6.4 1.2 0 .1-.1 1.5-.9 2-1.1.5-.3.8-.5.8-1.1v-2.5z"/><path fill="#231F20" d="M65.9 27.5l-.6-3.6c-.1-.6-.3-.8-.5-.9-.6-.3-1.8-.7-4-.7-4.4 0-6.5 1.9-6.5 4.9 0 3.5 3.1 4.6 6.5 5.6 4.3 1.3 9.1 2.7 9.1 9.1 0 6.6-5.2 9-11.3 9-3.9 0-7.6-1-8.9-1.6v-7h2.9l.8 3.7c.1.6.3.7.9.9.6.2 2.3.7 4.8.7 4.3 0 6.9-1.7 6.9-5.4s-2.9-4.9-6.3-5.8c-4.3-1.3-9.3-2.4-9.3-8.8 0-6.1 4.8-8.7 10.7-8.7 3.6 0 6.5.9 7.9 1.5v7.2l-3.1-.1zM72 59.4v-2.3l1.7-.3c.6-.1.7-.2.7-.9V32.5c0-.5-.1-.8-.6-.9l-2.4-.8.4-2.3h5.6l.4 2.5h.1c2.3-1.7 4.7-2.9 7.6-2.9 4.8 0 8 3.1 8 10.6 0 6.4-2.2 12.3-8.8 12.3-2.4 0-4.5-.6-6.5-2.3v7.4c0 .7 0 .8.7.9l4 .3v2.3H72zm6.3-14.5c1.4 1.4 3.6 2.8 5.8 2.8 4 0 5.6-3.4 5.6-8.7 0-5.8-2.3-7.6-4.9-7.6-2.7 0-5.3 1.7-6.5 2.6v10.9zm18 5.5V48l2.1-.3c.6-.1.7-.2.7-.9V32.5c0-.5-.1-.8-.6-.9l-2.4-.8.4-2.3h5.6l.4 2.9h.1c1.4-1.6 3.5-3.4 6.4-3.4 1 0 2.3.2 3.1.4v6.4l-3-.1-.5-2.9c0-.3-.1-.4-.5-.4-1.9 0-4.1 1.7-5.1 2.7v12.8c0 .7 0 .8.7.9l3.9.3v2.3H96.3zm36.5-1.4c-2.1 1.2-4.7 1.9-7.7 1.9-7.7 0-10.2-5.1-10.2-11.4 0-7.8 4.3-11.4 9.7-11.4 5.2 0 8.8 2.8 8.8 10.2 0 .6 0 1.4-.1 2.1H119c.1 4.3 1.9 7.2 6.5 7.2 2.4 0 3.9-.4 6.1-1.5l1.2 2.9zm-3.4-11.6c-.1-4.8-2.3-6.3-4.9-6.3-2.9 0-5.2 1.5-5.6 6.3h10.5zm22.8 13l-.3-2.8h-.2c-2 1.9-4.2 3.4-7.5 3.4-4.9 0-8-3.1-8-11 0-8.4 3.8-11.8 8.9-11.8 2.6 0 4.9.9 6.5 2v-8c0-.4-.2-.7-.6-.9l-2.6-.8.4-2.3h6.5v28.7c0 .7 0 .8.7.9l2.2.3v2.3h-6zm-.7-16.8c-1.3-1.1-3.6-2.3-5.8-2.3-4 0-5.6 3.5-5.6 8.6 0 5.9 2 7.8 5 7.8 2.5 0 4.6-1.7 6.4-3.5V33.6zm9.3 16.8V48l2.7-.3c.6 0 .7-.2.7-.9V31.9c0-.3 0-.4-.3-.4h-3.1v-2.9h3.4v-3.2c0-5 2.5-7.5 7.8-7.5 3.5 0 6.4.9 6.4 5.1l-3.6.5c0-2.3-1-2.7-2.9-2.7-3.1 0-3.7 1.7-3.7 4.5v2.9c0 .3 0 .4.3.4h7v2.9h-7.3v15.4c0 .7 0 .8.7.9l5 .4v2.3h-13.1zm30.7 0l-.4-2.8h-.1c-2 1.9-4.4 3.3-7.7 3.3-5.3 0-6-3.7-6-5.8 0-4.3 2.6-6.3 7.7-6.7l5.7-.5v-2.3c0-3.1-.6-4.6-4.3-4.6-2.6 0-4.5.1-4.5 3.3l-3.7-.4c0-5.2 4.8-5.8 8.2-5.8 6 0 8.1 1.7 8.1 7.6V47c0 .7 0 .8.7.8l2.2.3v2.3h-5.9zm-.7-9.8l-4.8.4c-3.7.3-4.7 1.4-4.7 3.6 0 2.3 1 3.2 3 3.2 2.5 0 5.2-2 6.5-3.3v-3.9zm22.1-6l-.5-2.6c0-.3-.1-.5-.4-.6-.6-.2-1.9-.5-3.3-.5-3.1 0-4.5 1.4-4.5 3.2 0 2.4 2.6 2.9 5.3 3.7 3.3.9 6.9 1.9 6.9 6.5 0 4.9-4.1 6.6-8.6 6.6-3.4 0-6.9-1-7.7-1.4v-5.7l2.9.2.5 2.9c0 .3.1.5.5.6.6.2 2 .7 4.2.7 2.9 0 4.7-1.1 4.7-3.4 0-2.6-2.4-3.1-5.1-3.8-3.3-.8-7.1-1.6-7.1-6.3 0-4.9 4.1-6.6 8.5-6.6 3.1 0 5.8.8 6.7 1.2v5.5l-3-.2zm20.4 15c-1.7.7-3.7 1.3-5.9 1.3-4.1 0-5.9-1.9-5.9-5.7V31.9c0-.3 0-.4-.3-.4h-3.1V29c3.3-.4 4.3-1.7 4.8-6.1h2.5v5.2c0 .3 0 .4.3.4h6.3v2.9h-6.6V44c0 2.7.6 3.7 3.1 3.7 1.3 0 2.8-.4 4-.9l.8 2.8z"/><path fill="none" d="M6-2.7h239v71H6z"/></svg>